<svg width="207" height="44" viewBox="0 0 207 44" fill="none" xmlns="http://www.w3.org/2000/svg">
<g id="Logo 4">
<path id="Vector" d="M33.724 19.6108C33.1674 20.17 32.7412 20.845 32.4757 21.5874C32.2101 22.33 32.1119 23.1218 32.1878 23.9066L32.1614 23.8802C32.2395 24.8041 32.1147 25.7337 31.7959 26.6044C31.477 27.475 30.9718 28.2657 30.3155 28.9213C29.6591 29.5768 28.8674 30.0815 27.9955 30.3997C27.1237 30.7181 26.1928 30.8428 25.2679 30.7648L25.2944 30.7912C24.1879 30.6884 23.0767 30.9287 22.112 31.4798C21.1474 32.0308 20.3764 32.8655 19.9043 33.8701C19.4321 34.8748 19.2816 36.0003 19.4734 37.0936C19.6653 38.1867 20.19 39.1941 20.9762 39.9785C21.7623 40.7629 22.7715 41.2861 23.8662 41.4766C24.961 41.6672 26.0878 41.5159 27.0933 41.0435C28.0989 40.5709 28.9339 39.8003 29.4848 38.8364C30.0356 37.8725 30.2755 36.7626 30.1715 35.6576L30.1994 35.684C30.1213 34.7603 30.2459 33.8305 30.5648 32.9598C30.8836 32.0892 31.3889 31.2985 32.0452 30.6429C32.7017 29.9874 33.4934 29.4828 34.3651 29.1645C35.237 28.8461 36.1678 28.7214 37.0929 28.7994L37.065 28.773C37.9687 28.8541 38.8785 28.7062 39.7098 28.3427C40.5411 27.9793 41.2671 27.4121 41.8205 26.6939C42.3738 25.9757 42.7369 25.1294 42.8755 24.2339C43.0143 23.3382 42.9244 22.4221 42.6142 21.5702C42.3041 20.7185 41.7836 19.9588 41.1012 19.3614C40.4187 18.7641 39.5963 18.3484 38.7102 18.1531C37.8241 17.9577 36.9028 17.9888 36.032 18.2435C35.1611 18.4985 34.3688 18.9687 33.7284 19.6108H33.724Z" fill="white"/>
<path id="Vector_2" d="M22.8903 27.3328L22.8624 27.3064C23.6485 27.3855 24.4424 27.2891 25.1869 27.0242C25.9311 26.7594 26.6073 26.3327 27.1662 25.7749C27.725 25.2172 28.1529 24.5422 28.4186 23.799C28.6844 23.0559 28.7815 22.2631 28.7029 21.4779L28.7308 21.5043C28.6527 20.5804 28.7775 19.6509 29.0962 18.7801C29.415 17.9095 29.9203 17.1188 30.5767 16.4632C31.2331 15.8078 32.0248 15.3031 32.8966 14.9848C33.7684 14.6663 34.6992 14.5418 35.6243 14.6198L35.5964 14.5934C36.7029 14.6972 37.8145 14.4575 38.7797 13.9071C39.7449 13.3567 40.5165 12.5224 40.9894 11.5179C41.4623 10.5134 41.6134 9.38773 41.4222 8.29432C41.231 7.2009 40.7067 6.19304 39.9207 5.40817C39.1349 4.62331 38.1257 4.09965 37.0309 3.90866C35.9361 3.71766 34.8089 3.86859 33.8031 4.34089C32.7973 4.81317 31.962 5.58383 31.4108 6.54774C30.8596 7.51163 30.6197 8.62185 30.7237 9.72696L30.6972 9.69909C30.7755 10.6229 30.651 11.5527 30.3323 12.4235C30.0136 13.2943 29.5083 14.0851 28.852 14.7408C28.1955 15.3962 27.4037 15.9009 26.5318 16.2192C25.6597 16.5374 24.7288 16.6618 23.8037 16.5836L23.8302 16.6115C23.0441 16.5324 22.25 16.6288 21.5057 16.8937C20.7615 17.1584 20.0853 17.5852 19.5264 18.143C18.9675 18.7008 18.5397 19.3757 18.2738 20.1189C18.0082 20.862 17.9111 21.6548 17.9897 22.44L17.9632 22.4136C18.0411 23.3373 17.9161 24.2669 17.5973 25.1375C17.2783 26.008 16.7731 26.7987 16.1168 27.4541C15.4604 28.1096 14.6688 28.6141 13.7971 28.9327C12.9255 29.2511 11.9947 29.3759 11.0698 29.2982L11.0962 29.3246C9.98966 29.2207 8.878 29.4604 7.91284 30.0108C6.94769 30.5612 6.17603 31.3955 5.70314 32.4C5.23023 33.4045 5.07908 34.5302 5.27033 35.6236C5.46159 36.717 5.98592 37.7249 6.7718 38.5097C7.55769 39.2947 8.56687 39.8183 9.6617 40.0092C10.7565 40.2002 11.8837 40.0493 12.8895 39.577C13.8953 39.1047 14.7307 38.3341 15.2818 37.3702C15.8329 36.4062 16.0729 35.2961 15.9689 34.191L15.9968 34.2174C15.9187 33.2935 16.0435 32.3639 16.3624 31.4932C16.681 30.6226 17.1864 29.8319 17.8427 29.1763C18.4991 28.5208 19.2908 28.0161 20.1626 27.6979C21.0345 27.3795 21.9652 27.2548 22.8903 27.3328Z" fill="white"/>
<path id="Vector_3" d="M13.0479 24.3892C13.6045 23.8301 14.0307 23.1552 14.296 22.4126C14.5613 21.67 14.6591 20.878 14.5826 20.0934L14.6105 20.1198C14.5323 19.1958 14.6571 18.2657 14.9761 17.3948C15.2951 16.5239 15.8006 15.7331 16.4574 15.0775C17.1141 14.4219 17.9061 13.9174 18.7783 13.5992C19.6505 13.281 20.5817 13.1568 21.5069 13.2352L21.479 13.2088C22.5851 13.3123 23.6964 13.0725 24.6611 12.5222C25.6258 11.9719 26.3969 11.1377 26.8697 10.1336C27.3423 9.1294 27.4932 8.0041 27.302 6.91109C27.1108 5.81809 26.5865 4.81061 25.801 4.02603C25.0155 3.24145 24.0066 2.71797 22.9122 2.52698C21.8178 2.33597 20.691 2.48678 19.6856 2.95878C18.68 3.43078 17.8449 4.20103 17.2939 5.16448C16.7427 6.12794 16.5026 7.23771 16.6063 8.34243L16.5798 8.31603C16.658 9.23981 16.5331 10.1695 16.2143 11.0402C15.8955 11.9108 15.3903 12.7015 14.7339 13.3571C14.0776 14.0126 13.2858 14.5172 12.414 14.8355C11.5422 15.1539 10.6113 15.2786 9.68637 15.2006L9.7128 15.227C8.809 15.146 7.89935 15.2943 7.06817 15.6579C6.23699 16.0215 5.51115 16.5888 4.95792 17.3071C4.4047 18.0254 4.04199 18.8716 3.90338 19.7672C3.76479 20.6629 3.8548 21.5789 4.16507 22.4305C4.47533 23.2822 4.99584 24.0418 5.67833 24.639C6.36082 25.2364 7.18322 25.6519 8.06932 25.8472C8.95542 26.0425 9.87655 26.0112 10.7474 25.7565C11.6182 25.5015 12.4105 25.0313 13.0509 24.3892H13.0479Z" fill="white"/>
<path id="Vector_4" d="M58.5399 9.76068H62.9015V30.9584H58.5399V9.76068Z" fill="white"/>
<path id="Vector_5" d="M65.3717 23.6999C65.3656 22.1766 65.8124 20.6856 66.6553 19.4161C67.4983 18.1465 68.6996 17.1553 70.1071 16.5682C71.5146 15.981 73.0648 15.8242 74.5615 16.1177C76.0583 16.4111 77.4342 17.1415 78.5149 18.2166C79.5957 19.2915 80.3326 20.6627 80.6325 22.1564C80.9324 23.65 80.7815 25.199 80.1992 26.607C79.617 28.0148 78.6293 29.2187 77.3615 30.0655C76.0936 30.9125 74.6027 31.3647 73.0773 31.3647C72.0648 31.3763 71.0602 31.1861 70.1221 30.8053C69.1839 30.4246 68.3313 29.8609 67.6139 29.1474C66.8963 28.4337 66.3286 27.5844 65.9437 26.6491C65.5586 25.7138 65.3642 24.7112 65.3717 23.6999ZM76.4212 23.6999C76.403 23.0433 76.1914 22.4066 75.8129 21.8693C75.4343 21.3323 74.9056 20.9184 74.2929 20.6797C73.6801 20.441 73.0106 20.3879 72.3678 20.5272C71.725 20.6665 71.1376 20.9918 70.6789 21.4628C70.2204 21.9336 69.9109 22.5291 69.7894 23.1747C69.6678 23.8202 69.7393 24.4872 69.9953 25.0924C70.2513 25.6975 70.6801 26.2138 71.2282 26.5768C71.7764 26.9398 72.4196 27.1334 73.0773 27.1334C73.5277 27.1454 73.9757 27.064 74.3932 26.8944C74.8106 26.7249 75.1883 26.4709 75.5025 26.1483C75.8166 25.8257 76.0605 25.4416 76.2185 25.0202C76.3767 24.5988 76.4457 24.1493 76.4212 23.6999Z" fill="white"/>
<path id="Vector_6" d="M98.1663 16.4399V30.2266C98.1663 35.1047 94.3569 37.1668 90.4901 37.1668C89.1288 37.2686 87.7655 36.9939 86.5499 36.3731C85.3346 35.7521 84.3137 34.8089 83.5996 33.6468L87.3209 31.4982C87.6211 32.1039 88.0994 32.6036 88.6917 32.9305C89.2841 33.2573 89.9623 33.3957 90.6355 33.3271C91.0658 33.3866 91.504 33.3488 91.9177 33.2164C92.3313 33.0839 92.7099 32.8603 93.0253 32.5621C93.3408 32.2638 93.585 31.8986 93.7401 31.4932C93.895 31.0879 93.9567 30.6531 93.9207 30.2207V28.8934C93.4099 29.5174 92.7599 30.0133 92.0226 30.3411C91.2852 30.6689 90.4813 30.8195 89.6751 30.781C87.7568 30.7205 85.9374 29.9171 84.6019 28.5405C83.2664 27.164 82.5196 25.3225 82.5196 23.4058C82.5196 21.4892 83.2664 19.6476 84.6019 18.2712C85.9374 16.8946 87.7568 16.0911 89.6751 16.0307C90.4813 15.9921 91.2852 16.1427 92.0226 16.4705C92.7599 16.7983 93.4099 17.2942 93.9207 17.9183V16.437L98.1663 16.4399ZM93.9222 23.408C93.9515 22.7061 93.7697 22.0113 93.4004 21.4134C93.031 20.8153 92.4909 20.3414 91.8496 20.0526C91.2082 19.7637 90.4951 19.6732 89.8018 19.7925C89.1085 19.9119 88.4669 20.2358 87.9593 20.7226C87.4519 21.2092 87.102 21.8363 86.9544 22.5233C86.8069 23.2103 86.8686 23.9258 87.1318 24.5774C87.3948 25.229 87.8471 25.7873 88.4304 26.18C89.0138 26.5728 89.7015 26.7822 90.4049 26.7814C90.8633 26.8133 91.3231 26.7491 91.755 26.5927C92.1869 26.4364 92.5812 26.1913 92.9125 25.8736C93.2438 25.5558 93.5049 25.1723 93.6788 24.7475C93.8527 24.3229 93.9357 23.8667 93.9222 23.408Z" fill="white"/>
<path id="Vector_7" d="M100.636 23.6999C100.63 22.1766 101.077 20.6856 101.92 19.4161C102.763 18.1465 103.964 17.1553 105.372 16.5682C106.779 15.981 108.33 15.8242 109.826 16.1177C111.323 16.4111 112.699 17.1415 113.78 18.2166C114.86 19.2915 115.597 20.6627 115.897 22.1564C116.197 23.65 116.046 25.199 115.464 26.607C114.882 28.0148 113.894 29.2187 112.626 30.0655C111.358 30.9125 109.867 31.3647 108.342 31.3647C107.33 31.3763 106.325 31.1861 105.387 30.8053C104.449 30.4246 103.596 29.8609 102.879 29.1474C102.161 28.4337 101.593 27.5844 101.208 26.6491C100.823 25.7138 100.629 24.7112 100.636 23.6999ZM111.686 23.6999C111.668 23.0433 111.456 22.4066 111.078 21.8693C110.699 21.3323 110.17 20.9184 109.558 20.6797C108.945 20.441 108.275 20.3879 107.633 20.5272C106.99 20.6665 106.402 20.9918 105.944 21.4628C105.485 21.9336 105.176 22.5291 105.054 23.1747C104.932 23.8202 105.004 24.4872 105.26 25.0924C105.516 25.6975 105.945 26.2138 106.493 26.5768C107.041 26.9398 107.684 27.1334 108.342 27.1334C108.792 27.1454 109.241 27.064 109.658 26.8944C110.075 26.7249 110.453 26.4709 110.767 26.1483C111.081 25.8257 111.325 25.4416 111.483 25.0202C111.641 24.5988 111.711 24.1493 111.686 23.6999Z" fill="white"/>
<path id="Vector_8" d="M118.082 12.5488C118.082 12.0319 118.235 11.5265 118.523 11.0968C118.81 10.6669 119.219 10.3319 119.697 10.1341C120.175 9.93631 120.702 9.88455 121.209 9.9854C121.717 10.0863 122.183 10.3352 122.549 10.7007C122.915 11.0662 123.164 11.5319 123.265 12.0389C123.366 12.5459 123.314 13.0714 123.116 13.549C122.918 14.0265 122.583 14.4347 122.153 14.7219C121.722 15.0091 121.216 15.1624 120.699 15.1624C120.007 15.1555 119.345 14.878 118.856 14.3893C118.367 13.9006 118.089 13.2398 118.082 12.5488ZM118.522 16.4399H122.885V30.9598H118.516L118.522 16.4399Z" fill="white"/>
<path id="Vector_9" d="M141.718 23.6999C141.769 24.6595 141.629 25.6196 141.306 26.525C140.984 27.4303 140.485 28.2631 139.84 28.9755C139.194 29.6877 138.413 30.2655 137.543 30.6756C136.673 31.0856 135.73 31.3198 134.769 31.3647C133.961 31.4087 133.153 31.2726 132.404 30.9662C131.655 30.6596 130.983 30.1906 130.438 29.5929V36.7664H126.077V16.4399H130.438V17.8039C130.983 17.2066 131.655 16.7379 132.404 16.4318C133.153 16.1256 133.961 15.9896 134.769 16.0336C135.73 16.0783 136.673 16.3124 137.544 16.7225C138.414 17.1326 139.195 17.7104 139.841 18.4229C140.486 19.1355 140.985 19.9685 141.307 20.8742C141.629 21.7797 141.769 22.7401 141.718 23.6999ZM137.357 23.6999C137.34 23.0204 137.122 22.3609 136.732 21.8041C136.341 21.2473 135.795 20.8179 135.162 20.5697C134.528 20.3214 133.835 20.2652 133.17 20.4084C132.504 20.5514 131.896 20.8872 131.421 21.3739C130.945 21.8607 130.625 22.4764 130.498 23.1444C130.372 23.8124 130.445 24.5026 130.71 25.129C130.974 25.7554 131.418 26.2899 131.985 26.6658C132.552 27.0415 133.217 27.242 133.898 27.2419C134.365 27.2627 134.832 27.1845 135.267 27.0126C135.702 26.8409 136.095 26.5791 136.422 26.2447C136.749 25.9101 137.001 25.5106 137.162 25.0721C137.323 24.6335 137.389 24.1658 137.357 23.6999Z" fill="white"/>
<path id="Vector_10" d="M155.178 26.6024C155.178 29.942 152.271 31.3646 149.132 31.3646C147.863 31.4793 146.589 31.2115 145.475 30.5954C144.36 29.9794 143.456 29.0436 142.88 27.9092L146.659 25.7605C146.811 26.2848 147.14 26.7411 147.589 27.0528C148.038 27.3646 148.581 27.5132 149.126 27.4736C150.171 27.4736 150.696 27.1538 150.696 26.5745C150.696 24.9758 143.542 25.8192 143.542 20.7958C143.542 17.6293 146.218 16.0336 149.242 16.0336C150.378 15.9976 151.503 16.2669 152.501 16.8133C153.498 17.3597 154.33 18.1632 154.91 19.14L151.189 21.1434C151.026 20.7631 150.754 20.4391 150.408 20.212C150.061 19.9848 149.656 19.8645 149.242 19.866C148.485 19.866 148.02 20.1593 148.02 20.6785C148.026 22.3344 155.178 21.23 155.178 26.6024Z" fill="white"/>
<path id="Vector_11" d="M171.11 16.4399V30.9599H166.749V29.5944C166.245 30.1969 165.606 30.6717 164.884 30.9797C164.161 31.2877 163.377 31.4201 162.593 31.3661C159.655 31.3661 157.159 29.2761 157.159 25.3528V16.4399H161.521V24.7148C161.484 25.0607 161.523 25.4103 161.637 25.7393C161.748 26.0684 161.932 26.3691 162.173 26.6203C162.413 26.8715 162.706 27.0673 163.03 27.1942C163.353 27.3211 163.701 27.3759 164.049 27.3548C165.649 27.3548 166.753 26.4264 166.753 24.3643V16.4443L171.11 16.4399Z" fill="white"/>
<path id="Vector_12" d="M196.12 22.044V30.9584H191.758V22.4209C191.758 20.9689 191.061 20.0405 189.666 20.0405C188.212 20.0405 187.397 21.0569 187.397 22.77V30.9584H183.037V22.4209C183.037 20.9689 182.339 20.0405 180.942 20.0405C179.488 20.0405 178.675 21.0569 178.675 22.77V30.9584H174.313V16.4384H178.675V17.7731C179.127 17.181 179.721 16.7113 180.4 16.4073C181.082 16.1031 181.828 15.9742 182.571 16.0321C183.317 15.9956 184.06 16.153 184.728 16.4887C185.395 16.8243 185.963 17.3271 186.379 17.9476C186.862 17.2983 187.502 16.782 188.24 16.4471C188.977 16.1121 189.788 15.9694 190.595 16.0321C193.933 16.0336 196.12 18.414 196.12 22.044Z" fill="white"/>
<path id="Vector_13" d="M199.809 16.3504C201.596 16.3504 203.046 14.9031 203.046 13.1178C203.046 11.3326 201.596 9.88531 199.809 9.88531C198.022 9.88531 196.572 11.3326 196.572 13.1178C196.572 14.9031 198.022 16.3504 199.809 16.3504Z" fill="white"/>
</g>
</svg>
